<?xml version="1.0" encoding="UTF-8" standalone="no"?>
<!DOCTYPE svg PUBLIC "-//W3C//DTD SVG 1.1//EN" "http://www.w3.org/Graphics/SVG/1.1/DTD/svg11.dtd">
<svg width="100%" height="100%" viewBox="0 0 709 237" version="1.1" xmlns="http://www.w3.org/2000/svg" xmlns:xlink="http://www.w3.org/1999/xlink" xml:space="preserve" xmlns:serif="http://www.serif.com/" style="fill-rule:evenodd;clip-rule:evenodd;stroke-linejoin:round;stroke-miterlimit:2;">
    <g transform="matrix(0.973436,0,0,1.1299,-635.654,-1981.78)">
        <path d="M1381,1858.47C1381,1800.78 1326.63,1753.94 1259.67,1753.94L774.333,1753.94C707.368,1753.94 653,1800.78 653,1858.47C653,1916.16 707.368,1963 774.333,1963L1259.67,1963C1326.63,1963 1381,1916.16 1381,1858.47ZM1351.04,1858.47C1351.04,1901.91 1310.1,1937.19 1259.67,1937.19L774.333,1937.19C723.904,1937.19 682.963,1901.91 682.963,1858.47C682.963,1815.02 723.904,1779.75 774.333,1779.75L1259.67,1779.75C1310.1,1779.75 1351.04,1815.02 1351.04,1858.47Z"/>
    </g>
    <g transform="matrix(0.551917,0,0,0.573351,-286.748,-576.217)">
        <ellipse cx="1584" cy="1211" rx="107" ry="103"/>
        <path d="M1584,1108C1643.06,1108 1691,1154.15 1691,1211C1691,1267.85 1643.06,1314 1584,1314C1524.94,1314 1477,1267.85 1477,1211C1477,1154.15 1524.94,1108 1584,1108ZM1584,1158.87C1613.89,1158.87 1638.15,1182.23 1638.15,1211C1638.15,1239.77 1613.89,1263.13 1584,1263.13C1554.11,1263.13 1529.85,1239.77 1529.85,1211C1529.85,1182.23 1554.11,1158.87 1584,1158.87Z"/>
    </g>
</svg>
