<?xml version="1.0" encoding="UTF-8" standalone="no"?>
<!DOCTYPE svg PUBLIC "-//W3C//DTD SVG 1.1//EN" "http://www.w3.org/Graphics/SVG/1.1/DTD/svg11.dtd">
<svg width="100%" height="100%" viewBox="0 0 986 354" version="1.1" xmlns="http://www.w3.org/2000/svg" xmlns:xlink="http://www.w3.org/1999/xlink" xml:space="preserve" xmlns:serif="http://www.serif.com/" style="fill-rule:evenodd;clip-rule:evenodd;stroke-linejoin:round;stroke-miterlimit:2;">
    <g transform="matrix(1.00359,0,0,1,-272.173,-494)">
        <g transform="matrix(0.103471,0,0,0.193306,242.959,398.507)">
            <rect x="271" y="494" width="9499" height="611" style="fill:rgb(128,128,128);"/>
        </g>
        <g transform="matrix(1,0,0,1,-1153.02,-111.449)">
            <text x="1545.8px" y="681.963px" style="font-family:'Silom';font-size:45.833px;fill:rgb(35,31,32);">Basic Setting</text>
        </g>
        <g transform="matrix(0.13841,0,0,0.13841,1191.95,553.055)">
            <g transform="matrix(1,0,0,1,-256,-256)">
                <path d="M175,175C184.4,165.7 199.6,165.7 208.1,175L255.1,222.1L303,175C312.4,165.7 327.6,165.7 336.1,175C346.3,184.4 346.3,199.6 336.1,208.1L289.9,255.1L336.1,303C346.3,312.4 346.3,327.6 336.1,336.1C327.6,346.3 312.4,346.3 303,336.1L255.1,289.9L208.1,336.1C199.6,346.3 184.4,346.3 175,336.1C165.7,327.6 165.7,312.4 175,303L222.1,255.1L175,208.1C165.7,199.6 165.7,184.4 175,175ZM0,96C0,60.65 28.65,32 64,32L448,32C483.3,32 512,60.65 512,96L512,416C512,451.3 483.3,480 448,480L64,480C28.65,480 0,451.3 0,416L0,96ZM48,96L48,416C48,424.8 55.16,432 64,432L448,432C456.8,432 464,424.8 464,416L464,96C464,87.16 456.8,80 448,80L64,80C55.16,80 48,87.16 48,96Z" style="fill-rule:nonzero;"/>
            </g>
        </g>
    </g>
    <g transform="matrix(2.82744,0,0,1.27,-2069.88,-985.522)">
        <rect x="732" y="869" width="248" height="93" style="fill:rgb(230,230,230);"/>
        <path d="M980,869L732,869L732,962L980,962L980,869ZM978.526,872.281L978.526,958.719C978.526,958.719 733.474,958.719 733.474,958.719C733.474,958.719 733.474,872.281 733.474,872.281C753.843,872.281 978.526,872.281 978.526,872.281L978.526,872.281Z" style="fill:white;"/>
    </g>
    <g transform="matrix(1.14919,0,0,1.27,-140.204,-985.522)">
        <rect x="732" y="869" width="248" height="93" style="fill:rgb(230,230,230);"/>
        <path d="M980,869L732,869L732,962L980,962L980,869ZM976.374,872.281L976.374,958.719C976.374,958.719 735.626,958.719 735.626,958.719C735.626,958.719 735.626,872.281 735.626,872.281L976.374,872.281Z" style="fill:white;"/>
    </g>
    <g transform="matrix(1,0,0,1,32.2096,-42.7919)">
        <text x="71.439px" y="233.434px" style="font-family:'ArialMT', 'Arial', sans-serif;font-size:53.333px;fill:rgb(35,31,32);">Number of Enclosure</text>
    </g>
    <g transform="matrix(1,0,0,1,754.811,-37.7658)">
        <text x="71.439px" y="233.434px" style="font-family:'ArialMT', 'Arial', sans-serif;font-size:53.333px;fill:rgb(35,31,32);">5</text>
    </g>
    <g transform="matrix(0.11721,0,0,0.11721,52.7961,29.0551)">
        <path d="M481.9,166.6C485.1,175.3 482.4,185 475.5,191.2L444.6,219.3C436.9,226.4 433.2,236.8 433.7,247.2C433.8,250.1 433.9,253 433.9,256C433.9,259 433.8,261.9 433.7,264.8C433.2,275.3 436.8,285.7 444.6,292.7L475.5,320.8C482.4,327 485.1,336.7 481.9,345.4C477.5,357.3 472.2,368.7 466.1,379.7L461.4,387.8C454.8,398.8 447.4,409.2 439.3,419C433.4,426.2 423.6,428.6 414.8,425.8L375.1,413.2C365.1,410 354.3,412.1 345.4,417.8C340.5,420.9 335.5,423.9 330.3,426.5C321,431.3 313.8,439.7 311.5,449.9L302.6,490.6C300.6,499.7 293.6,506.9 284.4,508.4C270.6,510.7 256.4,511.9 241.9,511.9C227.4,511.9 213.2,510.7 199.4,508.4C190.2,506.9 183.2,499.7 181.2,490.6L172.3,449.9C170.1,439.7 162.8,431.3 153.5,426.5C148.3,423.8 143.3,420.9 138.4,417.8C129.6,412.1 118.7,410 108.7,413.2L69.1,425.9C60.3,428.7 50.5,426.2 44.6,419.1C36.5,409.3 29.1,398.9 22.5,387.9L17.8,379.8C11.7,368.8 6.4,357.4 2,345.5C-1.2,336.8 1.5,327.1 8.4,320.9L39.3,292.8C47,285.7 50.7,275.3 50.2,264.9C50.1,262 50,259.1 50,256.1C50,253.1 50.1,250.2 50.2,247.3C50.7,236.8 47.1,226.4 39.3,219.4L8.4,191.2C1.5,185 -1.2,175.3 2,166.6C6.4,154.7 11.7,143.3 17.8,132.3L22.5,124.2C29.1,113.2 36.5,102.8 44.6,93C50.5,85.8 60.3,83.4 69.1,86.2L108.8,98.8C118.8,102 129.6,99.9 138.5,94.2C143.4,91.1 148.4,88.1 153.6,85.5C162.9,80.7 170.1,72.3 172.4,62.1L181.3,21.4C183.3,12.3 190.3,5.1 199.5,3.6C213.3,1.2 227.5,0 242,0C256.5,0 270.7,1.2 284.5,3.5C293.7,5 300.7,12.2 302.7,21.3L311.6,62C313.8,72.2 321,80.6 330.4,85.4C335.6,88.1 340.6,91 345.5,94.1C354.3,99.8 365.2,101.8 375.2,98.7L414.9,86.1C423.7,83.3 433.5,85.8 439.4,92.9C447.5,102.7 454.9,113.1 461.5,124.1L466.2,132.2C472.3,143.2 477.6,154.6 482,166.5L481.9,166.6ZM242,336C285.887,336 322,299.887 322,256C322,212.113 285.887,176 242,176C198.113,176 162,212.113 162,256C162,299.887 198.113,336 242,336Z" style="fill-rule:nonzero;"/>
    </g>
    <g transform="matrix(2.82744,0,0,1.27,-2069.68,-867.412)">
        <rect x="732" y="869" width="248" height="93" style="fill:rgb(230,230,230);"/>
        <path d="M980,869L732,869L732,962L980,962L980,869ZM978.526,872.281L978.526,958.719C978.526,958.719 733.474,958.719 733.474,958.719C733.474,958.719 733.474,872.281 733.474,872.281C733.474,872.281 978.526,872.281 978.526,872.281L978.526,872.281Z" style="fill:white;"/>
    </g>
    <g transform="matrix(1.14919,0,0,1.27,-140.005,-867.412)">
        <rect x="732" y="869" width="248" height="93" style="fill:rgb(230,230,230);"/>
        <path d="M980,869L732,869L732,962L980,962L980,869ZM976.374,872.281L976.374,958.719C948.144,958.719 763.856,958.719 735.626,958.719C735.626,958.719 735.626,872.281 735.626,872.281L976.374,872.281Z" style="fill:white;"/>
    </g>
    <g transform="matrix(1,0,0,1,32.4089,75.3184)">
        <text x="71.439px" y="233.434px" style="font-family:'ArialMT', 'Arial', sans-serif;font-size:53.333px;fill:rgb(35,31,32);">Network port number</text>
    </g>
    <g transform="matrix(1,0,0,1,700.104,80.6829)">
        <text x="71.439px" y="233.434px" style="font-family:'ArialMT', 'Arial', sans-serif;font-size:53.333px;fill:rgb(35,31,32);">10001</text>
    </g>
</svg>
