<?xml version="1.0" encoding="UTF-8" standalone="no"?>
<!DOCTYPE svg PUBLIC "-//W3C//DTD SVG 1.1//EN" "http://www.w3.org/Graphics/SVG/1.1/DTD/svg11.dtd">
<svg width="100%" height="100%" viewBox="0 0 448 512" version="1.1" xmlns="http://www.w3.org/2000/svg" xmlns:xlink="http://www.w3.org/1999/xlink" xml:space="preserve" xmlns:serif="http://www.serif.com/" style="fill-rule:evenodd;clip-rule:evenodd;stroke-linejoin:round;stroke-miterlimit:2;">
    <g transform="matrix(-1,-1.22465e-16,1.32472e-16,-1.08172,448,550.174)">
        <path d="M246.6,470.6C234.1,483.1 213.8,483.1 201.3,470.6L41.3,310.6C28.8,298.1 28.8,277.8 41.3,265.3C53.8,252.8 74.1,252.8 86.6,265.3L224,402.7L361.4,265.4C373.9,252.9 394.2,252.9 406.7,265.4C419.2,277.9 419.2,298.2 406.7,310.7L246.7,470.7L246.6,470.6ZM406.6,118.6L246.6,278.6C234.1,291.1 213.8,291.1 201.3,278.6L41.3,118.6C28.8,106.1 28.8,85.8 41.3,73.3C53.8,60.8 74.1,60.8 86.6,73.3L224,210.7L361.4,73.4C373.9,60.9 394.2,60.9 406.7,73.4C419.2,85.9 419.2,106.2 406.7,118.7L406.6,118.6Z" style="fill:rgb(0,40,90);fill-opacity:0.4;fill-rule:nonzero;"/>
    </g>
</svg>
