<?xml version="1.0" encoding="UTF-8" standalone="no"?>
<!DOCTYPE svg PUBLIC "-//W3C//DTD SVG 1.1//EN" "http://www.w3.org/Graphics/SVG/1.1/DTD/svg11.dtd">
<svg width="100%" height="100%" viewBox="0 0 3129 600" version="1.1" xmlns="http://www.w3.org/2000/svg" xmlns:xlink="http://www.w3.org/1999/xlink" xml:space="preserve" xmlns:serif="http://www.serif.com/" style="fill-rule:evenodd;clip-rule:evenodd;stroke-linejoin:round;stroke-miterlimit:2;">
    <g transform="matrix(1.00359,0,0,1,-271.974,-494)">
        <g transform="matrix(0.32816,0,0,0.193306,182.069,398.507)">
            <rect x="271" y="494" width="9499" height="611" style="fill:rgb(128,128,128);"/>
        </g>
        <g transform="matrix(1,0,0,1,-1153.02,-111.449)">
            <text x="1545.8px" y="681.963px" style="font-family:'Silom';font-size:45.833px;fill:rgb(35,31,32);">Client Setting</text>
        </g>
        <g transform="matrix(0.13841,0,0,0.13841,3326.06,553.055)">
            <g transform="matrix(1,0,0,1,-256,-256)">
                <path d="M175,175C184.4,165.7 199.6,165.7 208.1,175L255.1,222.1L303,175C312.4,165.7 327.6,165.7 336.1,175C346.3,184.4 346.3,199.6 336.1,208.1L289.9,255.1L336.1,303C346.3,312.4 346.3,327.6 336.1,336.1C327.6,346.3 312.4,346.3 303,336.1L255.1,289.9L208.1,336.1C199.6,346.3 184.4,346.3 175,336.1C165.7,327.6 165.7,312.4 175,303L222.1,255.1L175,208.1C165.7,199.6 165.7,184.4 175,175ZM0,96C0,60.65 28.65,32 64,32L448,32C483.3,32 512,60.65 512,96L512,416C512,451.3 483.3,480 448,480L64,480C28.65,480 0,451.3 0,416L0,96ZM48,96L48,416C48,424.8 55.16,432 64,432L448,432C456.8,432 464,424.8 464,416L464,96C464,87.16 456.8,80 448,80L64,80C55.16,80 48,87.16 48,96Z" style="fill-rule:nonzero;"/>
            </g>
        </g>
    </g>
    <g transform="matrix(2.06131,0,0,1.27,-1508.88,-985.522)">
        <rect x="732" y="869" width="248" height="93" style="fill:rgb(230,230,230);"/>
        <path d="M980,869L732,869L732,962L980,962L980,869ZM977.979,872.281L977.979,958.719C977.979,958.719 734.021,958.719 734.021,958.719C734.021,958.719 734.021,872.281 734.021,872.281C734.021,872.281 977.979,872.281 977.979,872.281L977.979,872.281Z" style="fill:white;"/>
    </g>
    <g transform="matrix(5.72984,0,0,1.27,-3683.04,-985.522)">
        <rect x="732" y="869" width="248" height="93" style="fill:rgb(230,230,230);"/>
        <path d="M980,869L732,869L732,962L980,962L980,869ZM979.273,872.281L979.273,958.719C979.273,958.719 732.727,958.719 732.727,958.719C732.727,958.719 732.727,872.281 732.727,872.281C747.402,872.281 979.273,872.281 979.273,872.281L979.273,872.281Z" style="fill:white;"/>
    </g>
    <g transform="matrix(1.07854,0,0,1,-208.834,-752)">
        <path d="M2547,991.21C2547,926.029 2497.93,873.11 2437.5,873.11L2218.5,873.11C2158.07,873.11 2109,926.029 2109,991.21L2109,1227.45C2109,1292.63 2158.07,1345.55 2218.5,1345.55L2437.5,1345.55C2497.93,1345.55 2547,1292.63 2547,1227.45L2547,991.21Z" style="fill:rgb(191,191,191);"/>
        <path d="M2547,991.21C2547,926.029 2497.93,873.11 2437.5,873.11L2218.5,873.11C2158.07,873.11 2109,926.029 2109,991.21L2109,1227.45C2109,1292.63 2158.07,1345.55 2218.5,1345.55L2437.5,1345.55C2497.93,1345.55 2547,1292.63 2547,1227.45L2547,991.21ZM2543.17,991.21L2543.17,1227.45C2543.17,1290.35 2495.82,1341.42 2437.5,1341.42C2437.5,1341.42 2218.5,1341.42 2218.5,1341.42C2160.18,1341.42 2112.83,1290.35 2112.83,1227.45L2112.83,991.21C2112.83,928.31 2160.18,877.244 2218.5,877.244C2218.5,877.244 2437.5,877.244 2437.5,877.244C2495.82,877.244 2543.17,928.31 2543.17,991.21Z" style="fill:white;"/>
    </g>
    <g transform="matrix(1,0,0,1,-8.79528,-755)">
        <g transform="matrix(1.27945,0,0,1,-141.571,3.77953)">
            <path d="M2547,991.22C2547,926.034 2505.64,873.11 2454.69,873.11L2201.31,873.11C2150.36,873.11 2109,926.034 2109,991.22L2109,1227.44C2109,1292.63 2150.36,1345.55 2201.31,1345.55L2454.69,1345.55C2505.64,1345.55 2547,1292.63 2547,1227.44L2547,991.22Z" style="fill:rgb(191,191,191);"/>
            <path d="M2547,991.22C2547,926.034 2505.64,873.11 2454.69,873.11L2201.31,873.11C2150.36,873.11 2109,926.034 2109,991.22L2109,1227.44C2109,1292.63 2150.36,1345.55 2201.31,1345.55L2454.69,1345.55C2505.64,1345.55 2547,1292.63 2547,1227.44L2547,991.22ZM2543.77,991.22L2543.77,1227.44C2543.77,1290.35 2503.85,1341.42 2454.69,1341.42L2201.31,1341.42C2152.15,1341.42 2112.23,1290.35 2112.23,1227.44C2112.23,1227.44 2112.23,991.22 2112.23,991.22C2112.23,928.315 2152.15,877.244 2201.31,877.244C2201.31,877.244 2454.69,877.244 2454.69,877.244C2503.85,877.244 2543.77,928.315 2543.77,991.22Z" style="fill:white;"/>
        </g>
        <g transform="matrix(1,0,0,1,0,48)">
            <g transform="matrix(1.07854,0,0,0.231417,326.155,920.448)">
                <path d="M2547,1109.33C2547,978.957 2524.29,873.11 2496.32,873.11L2159.68,873.11C2131.71,873.11 2109,978.957 2109,1109.33C2109,1239.7 2131.71,1345.55 2159.68,1345.55L2496.32,1345.55C2524.29,1345.55 2547,1239.7 2547,1109.33Z" style="fill:rgb(191,191,191);"/>
                <path d="M2547,1109.33C2547,978.957 2524.29,873.11 2496.32,873.11L2159.68,873.11C2131.71,873.11 2109,978.957 2109,1109.33C2109,1239.7 2131.71,1345.55 2159.68,1345.55L2496.32,1345.55C2524.29,1345.55 2547,1239.7 2547,1109.33ZM2543.17,1109.33C2543.17,1229.85 2522.17,1327.69 2496.32,1327.69L2159.68,1327.69C2133.83,1327.69 2112.83,1229.85 2112.83,1109.33C2112.83,988.815 2133.83,890.971 2159.68,890.971L2496.32,890.971C2522.17,890.971 2543.17,988.815 2543.17,1109.33Z" style="fill:white;"/>
            </g>
            <g transform="matrix(1,0,0,1,2563.72,962.561)">
                <text x="71.439px" y="233.434px" style="font-family:'ArialMT', 'Arial', sans-serif;font-size:53.333px;fill:rgb(35,31,32);">Cooler</text>
            </g>
            <g transform="matrix(0.338672,0,0,0.338672,2816.09,1137.17)">
                <g transform="matrix(0.973436,0,0,1.1299,-635.654,-1981.78)">
                    <path d="M1381,1858.47C1381,1800.78 1326.63,1753.94 1259.67,1753.94L774.333,1753.94C707.368,1753.94 653,1800.78 653,1858.47C653,1916.16 707.368,1963 774.333,1963L1259.67,1963C1326.63,1963 1381,1916.16 1381,1858.47ZM1351.04,1858.47C1351.04,1901.91 1310.1,1937.19 1259.67,1937.19L774.333,1937.19C723.904,1937.19 682.963,1901.91 682.963,1858.47C682.963,1815.02 723.904,1779.75 774.333,1779.75L1259.67,1779.75C1310.1,1779.75 1351.04,1815.02 1351.04,1858.47Z"/>
                </g>
                <g transform="matrix(0.551917,0,0,0.573351,-286.748,-576.217)">
                    <ellipse cx="1584" cy="1211" rx="107" ry="103"/>
                    <path d="M1584,1108C1643.06,1108 1691,1154.15 1691,1211C1691,1267.85 1643.06,1314 1584,1314C1524.94,1314 1477,1267.85 1477,1211C1477,1154.15 1524.94,1108 1584,1108ZM1584,1158.87C1613.89,1158.87 1638.15,1182.23 1638.15,1211C1638.15,1239.77 1613.89,1263.13 1584,1263.13C1554.11,1263.13 1529.85,1239.77 1529.85,1211C1529.85,1182.23 1554.11,1158.87 1584,1158.87Z"/>
                </g>
            </g>
        </g>
        <g transform="matrix(1,0,0,1,0,39)">
            <g transform="matrix(1.07854,0,0,0.231417,326.155,801.948)">
                <path d="M2547,1109.33C2547,978.957 2524.29,873.11 2496.32,873.11L2159.68,873.11C2131.71,873.11 2109,978.957 2109,1109.33C2109,1239.7 2131.71,1345.55 2159.68,1345.55L2496.32,1345.55C2524.29,1345.55 2547,1239.7 2547,1109.33Z" style="fill:rgb(191,191,191);"/>
                <path d="M2547,1109.33C2547,978.957 2524.29,873.11 2496.32,873.11L2159.68,873.11C2131.71,873.11 2109,978.957 2109,1109.33C2109,1239.7 2131.71,1345.55 2159.68,1345.55L2496.32,1345.55C2524.29,1345.55 2547,1239.7 2547,1109.33ZM2543.17,1109.33C2543.17,1229.85 2522.17,1327.69 2496.32,1327.69L2159.68,1327.69C2133.83,1327.69 2112.83,1229.85 2112.83,1109.33C2112.83,988.815 2133.83,890.971 2159.68,890.971L2496.32,890.971C2522.17,890.971 2543.17,988.815 2543.17,1109.33Z" style="fill:white;"/>
            </g>
            <g transform="matrix(1,0,0,1,2563.72,844.451)">
                <text x="71.439px" y="233.434px" style="font-family:'ArialMT', 'Arial', sans-serif;font-size:53.333px;fill:rgb(35,31,32);">Heater</text>
            </g>
            <g transform="matrix(0.338672,0,0,0.338672,2816.09,1019.06)">
                <g transform="matrix(0.973436,0,0,1.1299,-635.654,-1981.78)">
                    <path d="M1381,1858.47C1381,1800.78 1326.63,1753.94 1259.67,1753.94L774.333,1753.94C707.368,1753.94 653,1800.78 653,1858.47C653,1916.16 707.368,1963 774.333,1963L1259.67,1963C1326.63,1963 1381,1916.16 1381,1858.47ZM1351.04,1858.47C1351.04,1901.91 1310.1,1937.19 1259.67,1937.19L774.333,1937.19C723.904,1937.19 682.963,1901.91 682.963,1858.47C682.963,1815.02 723.904,1779.75 774.333,1779.75L1259.67,1779.75C1310.1,1779.75 1351.04,1815.02 1351.04,1858.47Z"/>
                </g>
                <g transform="matrix(0.551917,0,0,0.573351,-286.748,-576.217)">
                    <ellipse cx="1584" cy="1211" rx="107" ry="103"/>
                    <path d="M1584,1108C1643.06,1108 1691,1154.15 1691,1211C1691,1267.85 1643.06,1314 1584,1314C1524.94,1314 1477,1267.85 1477,1211C1477,1154.15 1524.94,1108 1584,1108ZM1584,1158.87C1613.89,1158.87 1638.15,1182.23 1638.15,1211C1638.15,1239.77 1613.89,1263.13 1584,1263.13C1554.11,1263.13 1529.85,1239.77 1529.85,1211C1529.85,1182.23 1554.11,1158.87 1584,1158.87Z"/>
                </g>
            </g>
        </g>
        <g transform="matrix(1,0,0,1,2584.62,750.002)">
            <text x="71.439px" y="233.434px" style="font-family:'ArialMT', 'Arial', sans-serif;font-size:53.333px;fill:rgb(35,31,32);">Manual Control</text>
        </g>
    </g>
    <g transform="matrix(2.41935,0,0,1.27,-438.763,-867.412)">
        <rect x="732" y="869" width="248" height="93" style="fill:rgb(230,230,230);"/>
        <path d="M980,869L732,869L732,962L980,962L980,869ZM978.278,872.281L978.278,958.719C978.278,958.719 733.722,958.719 733.722,958.719C733.722,958.719 733.722,872.281 733.722,872.281C755.586,872.281 978.278,872.281 978.278,872.281L978.278,872.281Z" style="fill:white;"/>
    </g>
    <g transform="matrix(2.41935,0,0,1.27,-438.763,-749.301)">
        <rect x="732" y="869" width="248" height="93" style="fill:rgb(230,230,230);"/>
        <path d="M980,869L732,869L732,962L980,962L980,869ZM978.278,872.281L978.278,958.719C978.278,958.719 755.586,958.719 733.722,958.719C733.722,958.719 733.722,872.281 733.722,872.281C733.722,872.281 978.278,872.281 978.278,872.281L978.278,872.281Z" style="fill:white;"/>
    </g>
    <g transform="matrix(2.41935,0,0,1.27,-438.763,-631.191)">
        <rect x="732" y="869" width="248" height="93" style="fill:rgb(230,230,230);"/>
        <path d="M980,869L732,869L732,962L980,962L980,869ZM978.278,872.281L978.278,958.719C978.278,958.719 733.722,958.719 733.722,958.719C733.722,958.719 733.722,872.281 733.722,872.281C733.722,872.281 978.278,872.281 978.278,872.281L978.278,872.281Z" style="fill:white;"/>
    </g>
    <g transform="matrix(4.96774,0,0,1.27,-3636.39,-867.412)">
        <rect x="732" y="869" width="248" height="93" style="fill:rgb(230,230,230);"/>
        <path d="M980,869L732,869L732,962L980,962L980,869ZM979.161,872.281L979.161,958.719C979.161,958.719 732.839,958.719 732.839,958.719C732.839,958.719 732.839,872.281 732.839,872.281C732.839,872.281 979.161,872.281 979.161,872.281L979.161,872.281Z" style="fill:white;"/>
    </g>
    <g transform="matrix(4.96774,0,0,1.27,-3636.39,-749.301)">
        <rect x="732" y="869" width="248" height="93" style="fill:rgb(230,230,230);"/>
        <path d="M980,869L732,869L732,962L980,962L980,869ZM979.161,872.281L979.161,958.719C979.161,958.719 732.839,958.719 732.839,958.719C732.839,958.719 732.839,872.281 732.839,872.281C748.531,872.281 979.161,872.281 979.161,872.281L979.161,872.281Z" style="fill:white;"/>
    </g>
    <g transform="matrix(4.96774,0,0,1.27,-3636.39,-631.191)">
        <rect x="732" y="869" width="248" height="93" style="fill:rgb(230,230,230);"/>
        <path d="M980,869L732,869L732,962L980,962L980,869ZM979.161,872.281L979.161,958.719C979.161,958.719 748.531,958.719 732.839,958.719C732.839,958.719 732.839,872.281 732.839,872.281C732.839,872.281 979.161,872.281 979.161,872.281L979.161,872.281Z" style="fill:white;"/>
    </g>
    <g transform="matrix(0.11721,0,0,0.11721,52.9953,29.0551)">
        <path d="M481.9,166.6C485.1,175.3 482.4,185 475.5,191.2L444.6,219.3C436.9,226.4 433.2,236.8 433.7,247.2C433.8,250.1 433.9,253 433.9,256C433.9,259 433.8,261.9 433.7,264.8C433.2,275.3 436.8,285.7 444.6,292.7L475.5,320.8C482.4,327 485.1,336.7 481.9,345.4C477.5,357.3 472.2,368.7 466.1,379.7L461.4,387.8C454.8,398.8 447.4,409.2 439.3,419C433.4,426.2 423.6,428.6 414.8,425.8L375.1,413.2C365.1,410 354.3,412.1 345.4,417.8C340.5,420.9 335.5,423.9 330.3,426.5C321,431.3 313.8,439.7 311.5,449.9L302.6,490.6C300.6,499.7 293.6,506.9 284.4,508.4C270.6,510.7 256.4,511.9 241.9,511.9C227.4,511.9 213.2,510.7 199.4,508.4C190.2,506.9 183.2,499.7 181.2,490.6L172.3,449.9C170.1,439.7 162.8,431.3 153.5,426.5C148.3,423.8 143.3,420.9 138.4,417.8C129.6,412.1 118.7,410 108.7,413.2L69.1,425.9C60.3,428.7 50.5,426.2 44.6,419.1C36.5,409.3 29.1,398.9 22.5,387.9L17.8,379.8C11.7,368.8 6.4,357.4 2,345.5C-1.2,336.8 1.5,327.1 8.4,320.9L39.3,292.8C47,285.7 50.7,275.3 50.2,264.9C50.1,262 50,259.1 50,256.1C50,253.1 50.1,250.2 50.2,247.3C50.7,236.8 47.1,226.4 39.3,219.4L8.4,191.2C1.5,185 -1.2,175.3 2,166.6C6.4,154.7 11.7,143.3 17.8,132.3L22.5,124.2C29.1,113.2 36.5,102.8 44.6,93C50.5,85.8 60.3,83.4 69.1,86.2L108.8,98.8C118.8,102 129.6,99.9 138.5,94.2C143.4,91.1 148.4,88.1 153.6,85.5C162.9,80.7 170.1,72.3 172.4,62.1L181.3,21.4C183.3,12.3 190.3,5.1 199.5,3.6C213.3,1.2 227.5,0 242,0C256.5,0 270.7,1.2 284.5,3.5C293.7,5 300.7,12.2 302.7,21.3L311.6,62C313.8,72.2 321,80.6 330.4,85.4C335.6,88.1 340.6,91 345.5,94.1C354.3,99.8 365.2,101.8 375.2,98.7L414.9,86.1C423.7,83.3 433.5,85.8 439.4,92.9C447.5,102.7 454.9,113.1 461.5,124.1L466.2,132.2C472.3,143.2 477.6,154.6 482,166.5L481.9,166.6ZM242,336C285.887,336 322,299.887 322,256C322,212.113 285.887,176 242,176C198.113,176 162,212.113 162,256C162,299.887 198.113,336 242,336Z" style="fill-rule:nonzero;"/>
    </g>
    <g transform="matrix(1,0,0,1,267.139,75.9694)">
        <text x="71.439px" y="233.434px" style="font-family:'ArialMT', 'Arial', sans-serif;font-size:53.333px;fill:rgb(35,31,32);">Heater Operation value</text>
    </g>
    <g transform="matrix(1,0,0,1,270.108,194.08)">
        <text x="71.439px" y="233.434px" style="font-family:'ArialMT', 'Arial', sans-serif;font-size:53.333px;fill:rgb(35,31,32);">Cooler Operation value</text>
    </g>
    <g transform="matrix(1,0,0,1,32.4089,-42.7919)">
        <text x="71.439px" y="233.434px" style="font-family:'ArialMT', 'Arial', sans-serif;font-size:53.333px;fill:rgb(35,31,32);">Name setting</text>
    </g>
    <g transform="matrix(1,0,0,1,272.842,317.164)">
        <text x="71.439px" y="233.434px" style="font-family:'ArialMT', 'Arial', sans-serif;font-size:53.333px;fill:rgb(35,31,32);">Dehumidiﬁcation V<tspan x="512.142px 541.804px " y="233.434px 233.434px ">al</tspan>ue</text>
    </g>
    <g transform="matrix(1,0,0,1,2117.3,112.459)">
        <text x="71.439px" y="233.434px" style="font-family:'ArialMT', 'Arial', sans-serif;font-size:53.333px;fill:rgb(35,31,32);">REBOOT</text>
        <text x="71.439px" y="288.512px" style="font-family:'ArialMT', 'Arial', sans-serif;font-size:53.333px;fill:rgb(35,31,32);">SYSTEM</text>
    </g>
    <g transform="matrix(0.128571,0,0,0.128571,1283.2,295.276)">
        <g transform="matrix(1,0,0,1,-350,-350)">
            <g transform="matrix(1.06707,0,0,1.06707,9.80835e-14,9.9476e-14)">
                <path d="M656,164C656,73.486 582.514,0 492,0L164,0C73.486,0 0,73.486 0,164L0,492C0,582.514 73.486,656 164,656L492,656C582.514,656 656,582.514 656,492L656,164Z" style="fill:white;"/>
                <path d="M656,164C656,73.486 582.514,0 492,0L164,0C73.486,0 0,73.486 0,164L0,492C0,582.514 73.486,656 164,656L492,656C582.514,656 656,582.514 656,492L656,164ZM640.381,164L640.381,492C640.381,573.894 573.894,640.381 492,640.381L164,640.381C82.106,640.381 15.619,573.894 15.619,492L15.619,164C15.619,82.106 82.106,15.619 164,15.619L492,15.619C573.894,15.619 640.381,82.106 640.381,164Z" style="fill:rgb(35,31,32);"/>
            </g>
            <g transform="matrix(41.3388,0,0,41.2417,22,539.758)">
                <text x="0px" y="0px" style="font-family:'LucidaGrande', 'Lucida Grande', sans-serif;font-weight:500;font-size:16px;fill:rgb(35,31,32);">⇪</text>
            </g>
        </g>
    </g>
    <g transform="matrix(0.175781,0,0,0.175781,1982.2,177.165)">
        <g transform="matrix(1,0,0,1,-256,-256)">
            <path d="M288,109.3L288,352C288,369.7 273.7,384 256,384C238.3,384 224,369.7 224,352L224,109.3L150.6,182.7C138.1,195.2 117.8,195.2 105.3,182.7C92.8,170.2 92.8,149.9 105.3,137.4L233.3,9.4C245.8,-3.1 266.1,-3.1 278.6,9.4L406.6,137.4C419.1,149.9 419.1,170.2 406.6,182.7C394.1,195.2 373.8,195.2 361.3,182.7L288,109.3ZM64,352L192,352C192,387.3 220.7,416 256,416C291.3,416 320,387.3 320,352L448,352C483.3,352 512,380.7 512,416L512,448C512,483.3 483.3,512 448,512L64,512C28.7,512 0,483.3 0,448L0,416C0,380.7 28.7,352 64,352ZM432,456C445.166,456 456,445.166 456,432C456,418.834 445.166,408 432,408C418.834,408 408,418.834 408,432C408,445.166 418.834,456 432,456Z" style="fill-rule:nonzero;"/>
        </g>
    </g>
    <g transform="matrix(0.128571,0,0,0.128571,1982.2,295.276)">
        <g transform="matrix(1,0,0,1,-350,-350)">
            <g transform="matrix(1.06707,0,0,1.06707,9.80835e-14,9.9476e-14)">
                <path d="M656,164C656,73.486 582.514,0 492,0L164,0C73.486,0 0,73.486 0,164L0,492C0,582.514 73.486,656 164,656L492,656C582.514,656 656,582.514 656,492L656,164Z" style="fill:white;"/>
                <path d="M656,164C656,73.486 582.514,0 492,0L164,0C73.486,0 0,73.486 0,164L0,492C0,582.514 73.486,656 164,656L492,656C582.514,656 656,582.514 656,492L656,164ZM640.381,164L640.381,492C640.381,573.894 573.894,640.381 492,640.381L164,640.381C82.106,640.381 15.619,573.894 15.619,492L15.619,164C15.619,82.106 82.106,15.619 164,15.619L492,15.619C573.894,15.619 640.381,82.106 640.381,164Z" style="fill:rgb(35,31,32);"/>
            </g>
            <g transform="matrix(-41.3388,-5.06254e-15,5.05065e-15,-41.2417,678,169.242)">
                <text x="0px" y="0px" style="font-family:'LucidaGrande', 'Lucida Grande', sans-serif;font-weight:500;font-size:16px;fill:rgb(35,31,32);">⇪</text>
            </g>
        </g>
    </g>
    <g transform="matrix(0.128571,0,0,0.128571,1982.2,413.386)">
        <g transform="matrix(1,0,0,1,-350,-350)">
            <g transform="matrix(1.06707,0,0,1.06707,9.80835e-14,9.9476e-14)">
                <path d="M656,164C656,73.486 582.514,0 492,0L164,0C73.486,0 0,73.486 0,164L0,492C0,582.514 73.486,656 164,656L492,656C582.514,656 656,582.514 656,492L656,164Z" style="fill:white;"/>
                <path d="M656,164C656,73.486 582.514,0 492,0L164,0C73.486,0 0,73.486 0,164L0,492C0,582.514 73.486,656 164,656L492,656C582.514,656 656,582.514 656,492L656,164ZM640.381,164L640.381,492C640.381,573.894 573.894,640.381 492,640.381L164,640.381C82.106,640.381 15.619,573.894 15.619,492L15.619,164C15.619,82.106 82.106,15.619 164,15.619L492,15.619C573.894,15.619 640.381,82.106 640.381,164Z" style="fill:rgb(35,31,32);"/>
            </g>
            <g transform="matrix(-41.3388,-5.06254e-15,5.05065e-15,-41.2417,678,169.242)">
                <text x="0px" y="0px" style="font-family:'LucidaGrande', 'Lucida Grande', sans-serif;font-weight:500;font-size:16px;fill:rgb(35,31,32);">⇪</text>
            </g>
        </g>
    </g>
    <g transform="matrix(0.128571,0,0,0.128571,1982.2,531.496)">
        <g transform="matrix(1,0,0,1,-350,-350)">
            <g transform="matrix(1.06707,0,0,1.06707,9.80835e-14,9.9476e-14)">
                <path d="M656,164C656,73.486 582.514,0 492,0L164,0C73.486,0 0,73.486 0,164L0,492C0,582.514 73.486,656 164,656L492,656C582.514,656 656,582.514 656,492L656,164Z" style="fill:white;"/>
                <path d="M656,164C656,73.486 582.514,0 492,0L164,0C73.486,0 0,73.486 0,164L0,492C0,582.514 73.486,656 164,656L492,656C582.514,656 656,582.514 656,492L656,164ZM640.381,164L640.381,492C640.381,573.894 573.894,640.381 492,640.381L164,640.381C82.106,640.381 15.619,573.894 15.619,492L15.619,164C15.619,82.106 82.106,15.619 164,15.619L492,15.619C573.894,15.619 640.381,82.106 640.381,164Z" style="fill:rgb(35,31,32);"/>
            </g>
            <g transform="matrix(-41.3388,-5.06254e-15,5.05065e-15,-41.2417,678,169.242)">
                <text x="0px" y="0px" style="font-family:'LucidaGrande', 'Lucida Grande', sans-serif;font-weight:500;font-size:16px;fill:rgb(35,31,32);">⇪</text>
            </g>
        </g>
    </g>
    <g transform="matrix(0.128571,0,0,0.128571,1283.2,295.276)">
        <g transform="matrix(1,0,0,1,-350,-350)">
            <g transform="matrix(1.06707,0,0,1.06707,9.80835e-14,9.9476e-14)">
                <path d="M656,164C656,73.486 582.514,0 492,0L164,0C73.486,0 0,73.486 0,164L0,492C0,582.514 73.486,656 164,656L492,656C582.514,656 656,582.514 656,492L656,164Z" style="fill:white;"/>
                <path d="M656,164C656,73.486 582.514,0 492,0L164,0C73.486,0 0,73.486 0,164L0,492C0,582.514 73.486,656 164,656L492,656C582.514,656 656,582.514 656,492L656,164ZM640.381,164L640.381,492C640.381,573.894 573.894,640.381 492,640.381L164,640.381C82.106,640.381 15.619,573.894 15.619,492L15.619,164C15.619,82.106 82.106,15.619 164,15.619L492,15.619C573.894,15.619 640.381,82.106 640.381,164Z" style="fill:rgb(35,31,32);"/>
            </g>
            <g transform="matrix(41.3388,0,0,41.2417,22,539.758)">
                <text x="0px" y="0px" style="font-family:'LucidaGrande', 'Lucida Grande', sans-serif;font-weight:500;font-size:16px;fill:rgb(35,31,32);">⇪</text>
            </g>
        </g>
    </g>
    <g transform="matrix(0.128571,0,0,0.128571,1283.2,413.386)">
        <g transform="matrix(1,0,0,1,-350,-350)">
            <g transform="matrix(1.06707,0,0,1.06707,9.80835e-14,9.9476e-14)">
                <path d="M656,164C656,73.486 582.514,0 492,0L164,0C73.486,0 0,73.486 0,164L0,492C0,582.514 73.486,656 164,656L492,656C582.514,656 656,582.514 656,492L656,164Z" style="fill:white;"/>
                <path d="M656,164C656,73.486 582.514,0 492,0L164,0C73.486,0 0,73.486 0,164L0,492C0,582.514 73.486,656 164,656L492,656C582.514,656 656,582.514 656,492L656,164ZM640.381,164L640.381,492C640.381,573.894 573.894,640.381 492,640.381L164,640.381C82.106,640.381 15.619,573.894 15.619,492L15.619,164C15.619,82.106 82.106,15.619 164,15.619L492,15.619C573.894,15.619 640.381,82.106 640.381,164Z" style="fill:rgb(35,31,32);"/>
            </g>
            <g transform="matrix(41.3388,0,0,41.2417,22,539.758)">
                <text x="0px" y="0px" style="font-family:'LucidaGrande', 'Lucida Grande', sans-serif;font-weight:500;font-size:16px;fill:rgb(35,31,32);">⇪</text>
            </g>
        </g>
    </g>
    <g transform="matrix(0.128571,0,0,0.128571,1283.2,531.496)">
        <g transform="matrix(1,0,0,1,-350,-350)">
            <g transform="matrix(1.06707,0,0,1.06707,9.80835e-14,9.9476e-14)">
                <path d="M656,164C656,73.486 582.514,0 492,0L164,0C73.486,0 0,73.486 0,164L0,492C0,582.514 73.486,656 164,656L492,656C582.514,656 656,582.514 656,492L656,164Z" style="fill:white;"/>
                <path d="M656,164C656,73.486 582.514,0 492,0L164,0C73.486,0 0,73.486 0,164L0,492C0,582.514 73.486,656 164,656L492,656C582.514,656 656,582.514 656,492L656,164ZM640.381,164L640.381,492C640.381,573.894 573.894,640.381 492,640.381L164,640.381C82.106,640.381 15.619,573.894 15.619,492L15.619,164C15.619,82.106 82.106,15.619 164,15.619L492,15.619C573.894,15.619 640.381,82.106 640.381,164Z" style="fill:rgb(35,31,32);"/>
            </g>
            <g transform="matrix(41.3388,0,0,41.2417,22,539.758)">
                <text x="0px" y="0px" style="font-family:'LucidaGrande', 'Lucida Grande', sans-serif;font-weight:500;font-size:16px;fill:rgb(35,31,32);">⇪</text>
            </g>
        </g>
    </g>
    <g transform="matrix(1,0,0,1,-590.893,310.142)">
        <text x="2138.72px" y="251.291px" style="font-family:'ArialMT', 'Arial', sans-serif;font-size:85.333px;fill:rgb(35,152,32);">60%</text>
    </g>
    <g transform="matrix(1,0,0,1,-578.455,74.5259)">
        <text x="2138.72px" y="251.291px" style="font-family:'ArialMT', 'Arial', sans-serif;font-size:85.333px;fill:rgb(35,152,32);">7°C</text>
    </g>
    <g transform="matrix(1,0,0,1,-601.452,192.636)">
        <text x="2138.72px" y="251.291px" style="font-family:'ArialMT', 'Arial', sans-serif;font-size:85.333px;fill:rgb(35,152,32);">28°C</text>
    </g>
</svg>
