<?xml version="1.0" encoding="UTF-8" standalone="no"?>
<!DOCTYPE svg PUBLIC "-//W3C//DTD SVG 1.1//EN" "http://www.w3.org/Graphics/SVG/1.1/DTD/svg11.dtd">
<svg width="100%" height="100%" viewBox="0 0 700 700" version="1.1" xmlns="http://www.w3.org/2000/svg" xmlns:xlink="http://www.w3.org/1999/xlink" xml:space="preserve" xmlns:serif="http://www.serif.com/" style="fill-rule:evenodd;clip-rule:evenodd;stroke-linejoin:round;stroke-miterlimit:2;">
    <g transform="matrix(1.06707,0,0,1.06707,9.80835e-14,9.9476e-14)">
        <path d="M656,164C656,73.486 582.514,0 492,0L164,0C73.486,0 0,73.486 0,164L0,492C0,582.514 73.486,656 164,656L492,656C582.514,656 656,582.514 656,492L656,164Z" style="fill:white;"/>
        <path d="M656,164C656,73.486 582.514,0 492,0L164,0C73.486,0 0,73.486 0,164L0,492C0,582.514 73.486,656 164,656L492,656C582.514,656 656,582.514 656,492L656,164ZM640.381,164L640.381,492C640.381,573.894 573.894,640.381 492,640.381C492,640.381 164,640.381 164,640.381C82.106,640.381 15.619,573.894 15.619,492L15.619,164C15.619,82.106 82.106,15.619 164,15.619L492,15.619C573.894,15.619 640.381,82.106 640.381,164Z" style="fill:rgb(35,31,32);"/>
    </g>
    <g transform="matrix(41.3388,0,0,41.2417,22,31)">
        <text x="0px" y="12.336px" style="font-family:'LucidaGrande', 'Lucida Grande', sans-serif;font-weight:500;font-size:16px;fill:rgb(35,31,32);">⇪</text>
    </g>
</svg>
