<?xml version="1.0" encoding="UTF-8" standalone="no"?>
<!DOCTYPE svg PUBLIC "-//W3C//DTD SVG 1.1//EN" "http://www.w3.org/Graphics/SVG/1.1/DTD/svg11.dtd">
<svg width="100%" height="100%" viewBox="0 0 297 297" version="1.1" xmlns="http://www.w3.org/2000/svg" xmlns:xlink="http://www.w3.org/1999/xlink" xml:space="preserve" xmlns:serif="http://www.serif.com/" style="fill-rule:evenodd;clip-rule:evenodd;stroke-linejoin:round;stroke-miterlimit:2;">
    <g transform="matrix(1,0,0,0.981331,-160.998,-461.054)">
        <path d="M160.99,660.772L161.117,660.867L309.324,698.113L457.658,660.772L309.324,772.219L160.99,660.772ZM457.658,648.752L457.658,615.341L327.782,615.341L327.782,605.172L457.658,605.172L457.658,593.361L315.926,593.361L315.926,627.152L445.667,627.152L445.667,637.469L315.926,637.469L315.926,648.752L457.658,648.752ZM302.723,593.361L160.99,593.361L160.99,648.752L302.723,648.752L302.723,637.469L172.801,637.469L172.801,627.152L302.723,627.152L302.723,615.341L172.801,615.341L172.801,605.172L302.723,605.172L302.723,593.361ZM457.533,581.184L457.532,581.184L309.324,543.937L160.99,581.278L309.324,469.832C309.324,469.832 452.698,577.552 457.533,581.184Z" style="fill:rgb(150,0,0);"/>
    </g>
</svg>
