<?xml version="1.0" encoding="UTF-8" standalone="no"?>
<!DOCTYPE svg PUBLIC "-//W3C//DTD SVG 1.1//EN" "http://www.w3.org/Graphics/SVG/1.1/DTD/svg11.dtd">
<svg width="100%" height="100%" viewBox="0 0 512 512" version="1.1" xmlns="http://www.w3.org/2000/svg" xmlns:xlink="http://www.w3.org/1999/xlink" xml:space="preserve" xmlns:serif="http://www.serif.com/" style="fill-rule:evenodd;clip-rule:evenodd;stroke-linejoin:round;stroke-miterlimit:2;">
    <path d="M256,512C396.437,512 512,396.437 512,256C512,115.563 396.437,0 256,0C115.563,0 -0,115.563 0,256C0,396.437 115.563,512 256,512ZM164.1,325.5C182,346.2 212.6,368 256,368C299.4,368 330,346.2 347.9,325.5C353.7,318.8 363.8,318.1 370.5,323.9C377.2,329.7 377.9,339.8 372.1,346.5C349.8,372.1 311.1,400 256,400C200.9,400 162.2,372.1 139.9,346.5C134.1,339.8 134.8,329.7 141.5,323.9C148.2,318.1 158.3,318.8 164.1,325.5ZM217.6,228.8L217.4,228.6C217.2,228.4 217,228.1 216.7,227.7C216.1,226.9 215.1,225.7 213.9,224.3C211.4,221.5 207.9,217.7 203.7,214C194.9,206.2 184.9,200 176,200C167.1,200 157.1,206.2 148.3,214C144.1,217.7 140.6,221.5 138.1,224.3C136.9,225.7 135.9,226.9 135.3,227.7C135,228.1 134.7,228.4 134.6,228.6L134.4,228.8C132.3,231.6 128.7,232.7 125.5,231.6C122.3,230.5 120,227.5 120,224C120,206.1 126.7,188.4 136.6,175.2C146.4,162.2 160.5,152 176,152C191.5,152 205.6,162.2 215.4,175.2C225.3,188.4 232,206.1 232,224C232,227.4 229.8,230.5 226.5,231.6C223.2,232.7 219.6,231.6 217.6,228.8ZM377.6,228.8L377.4,228.6C377.2,228.4 377,228.1 376.7,227.7C376.1,226.9 375.1,225.7 373.9,224.3C371.4,221.5 367.9,217.7 363.7,214C354.9,206.2 344.9,200 336,200C327.1,200 317.1,206.2 308.3,214C304.1,217.7 300.6,221.5 298.1,224.3C296.9,225.7 295.9,226.9 295.3,227.7C295,228.1 294.7,228.4 294.6,228.6L294.4,228.8C292.3,231.6 288.7,232.7 285.5,231.6C282.3,230.5 280,227.5 280,224C280,206.1 286.7,188.4 296.6,175.2C306.4,162.2 320.5,152 336,152C351.5,152 365.6,162.2 375.4,175.2C385.3,188.4 392,206.1 392,224C392,227.4 389.8,230.5 386.5,231.6C383.2,232.7 379.6,231.6 377.6,228.8Z" style="fill:rgb(0,150,0);fill-rule:nonzero;"/>
</svg>
